<svg width="1016" height="1018" fill="none" xmlns="http://www.w3.org/2000/svg"><path d="M612.928 279.324c.786 2.029.786 3.909-.001 5.639-.778 1.727-2.244 3.081-4.397 4.064-2.354 1.074-4.58 1.135-6.677.181-2.093-.965-3.789-2.822-5.089-5.571l-.528-1.116c-.83-1.754-1.25-3.442-1.26-5.063-.01-1.621.393-3.05 1.209-4.285.821-1.249 1.996-2.222 3.527-2.92 2.119-.967 4.093-1.182 5.921-.645 1.829.537 3.326 1.779 4.493 3.726l-3.785 1.727c-.649-1.136-1.385-1.837-2.206-2.103-.816-.277-1.804-.151-2.965.378-1.261.576-1.994 1.459-2.198 2.649-.199 1.178.139 2.715 1.016 4.611l.652 1.379c.933 1.972 1.913 3.277 2.941 3.915 1.036.635 2.202.657 3.497.066 1.169-.534 1.914-1.194 2.237-1.981.328-.8.271-1.775-.171-2.924l3.784-1.727zm21.53-2.433l-3.784 1.726-3.699-7.821-7.38 3.367 3.7 7.822-3.784 1.726-8.632-18.249 3.784-1.727 3.498 7.395 7.379-3.367-3.498-7.395 3.785-1.727 8.631 18.25zm10.392-3.158l1.561-.712 1.036 2.19-1.561.713 1.401 2.961-2.734 1.247-1.401-2.961-5.648 2.577-.932-1.654 1.478-11.636 2.763-1.26 4.037 8.535zm-5.78 2.638l3.046-1.39-2.285-4.832-.033.392-.728 5.83zm38.255-29.404c.85 1.796 1.276 3.517 1.277 5.163.001 1.645-.422 3.108-1.268 4.388-.838 1.276-2.026 2.265-3.565 2.968-1.522.694-3.052.95-4.59.768-1.538-.182-2.954-.796-4.246-1.842-1.296-1.054-2.363-2.457-3.202-4.208l-.426-.902c-.85-1.797-1.273-3.524-1.27-5.181.008-1.67.432-3.139 1.274-4.407.847-1.28 2.035-2.269 3.566-2.968 1.53-.698 3.062-.95 4.596-.756 1.538.182 2.954.811 4.25 1.886 1.3 1.062 2.373 2.488 3.219 4.276l.385.815zm-4.226.922c-.905-1.913-1.937-3.21-3.097-3.89-1.16-.679-2.379-.727-3.657-.144-1.27.579-2.016 1.519-2.24 2.82-.227 1.292.104 2.889.993 4.789l.421.89c.881 1.864 1.909 3.152 3.085 3.865 1.176.713 2.411.774 3.706.183 1.27-.579 2.012-1.517 2.227-2.814.211-1.305-.128-2.908-1.017-4.809l-.421-.89zm-21.287 23.216l-2.712 1.237-2.611-22.901 2.712-1.237 2.611 22.901zm43.676-13.987l-9.441 4.309-.881-1.862 2.224-6.752c.298-.943.474-1.729.53-2.356.063-.631-.011-1.168-.222-1.613-.287-.608-.667-1.014-1.139-1.218-.475-.209-1-.183-1.574.078-.618.282-1.006.719-1.164 1.309-.154.581-.069 1.216.257 1.905l-2.743 1.252a4.95 4.95 0 01-.485-2.556 4.563 4.563 0 01.939-2.394c.544-.729 1.28-1.304 2.208-1.727 1.419-.648 2.679-.812 3.782-.492 1.108.317 1.954 1.093 2.538 2.328.32.677.47 1.446.449 2.31-.022.863-.24 1.957-.656 3.282l-1.58 4.71 5.922-2.703 1.036 2.19zM332.154 910.072l-2.976 6.29-9.736-2.442.869-3.847-1.35-123.465 13.364-.162-.171 123.626z" fill="#fff"/><path d="M319.429 800.262l-.182 97.252" stroke="#fff" stroke-width="1.497" stroke-miterlimit="10"/><path d="M319.422 800.424l.012-17.192c0-.191.102-.345.225-.345l11.762.034c.124 0 .225.155.224.346l-.151 17.361" fill="#fff"/><path d="M319.422 800.424l.012-17.192c0-.191.102-.345.225-.345l11.762.034c.124 0 .225.155.224.346l-.151 17.361" stroke="#fff" stroke-width="1.497" stroke-miterlimit="10"/><path d="M320.574 791.045l.881-.224a.244.244 0 01.114-.003.242.242 0 01.101.051c.2.224.305.515.292.813.009.498-.032.671-.342.766" fill="#fff"/><path d="M320.574 791.045l.881-.224a.244.244 0 01.114-.003.242.242 0 01.101.051c.2.224.305.515.292.813.009.498-.032.671-.342.766" stroke="#fff" stroke-width="1.497" stroke-miterlimit="10"/><path d="M321.264 804.468l.369-.101c.324-.12.325-.12.363-.371l.79-5.312c.019-.128.029-.256.029-.385v-2.084a2.558 2.558 0 00-.054-.538l-.454-3.025c-.042-.281-.197-.488-.384-.517l-.114-.031a.218.218 0 00-.095 0l-.644.131" fill="#fff"/><path d="M321.264 804.468l.369-.101c.324-.12.325-.12.363-.371l.79-5.312c.019-.128.029-.256.029-.385v-2.084a2.558 2.558 0 00-.054-.538l-.454-3.025c-.042-.281-.197-.488-.384-.517l-.114-.031a.218.218 0 00-.095 0l-.644.131" stroke="#fff" stroke-width="1.497" stroke-miterlimit="10"/><path d="M323.769 915.239l-.247 1.019c-.048.201.029.415.162.461l.103.035c.31.109.648.109.958 0l.093-.033c.136-.046.214-.268.162-.467l-.292-1.14m-6.081-2.919c-.048.202-.059 1.142.075 1.188l.102.035c.316.11.456-1.068.78-1.146" stroke="#3D3D3D" stroke-width="1.497" stroke-miterlimit="10"/><path d="M320.215 913.113l-.42.746c-.049.201.029.415.162.462l.102.034c.121.043.248.069.376.078" fill="#fff"/><path d="M320.215 913.113l-.42.746c-.049.201.029.415.162.462l.102.034c.121.043.248.069.376.078" stroke="#3D3D3D" stroke-width="1.497" stroke-miterlimit="10"/><path d="M321.879 916.533c.187.01.375-.016.552-.077l.093-.033c.137-.046.213-.269.163-.467l-.168-.653" fill="#fff"/><path d="M321.879 916.533c.187.01.375-.016.552-.077l.093-.033c.137-.046.213-.269.163-.467l-.168-.653" stroke="#3D3D3D" stroke-width="1.497" stroke-miterlimit="10"/><path d="M325.013 916.123a.881.881 0 00.728 0" fill="#fff"/><path d="M325.013 916.123a.881.881 0 00.728 0" stroke="#3D3D3D" stroke-width="1.497" stroke-miterlimit="10"/><path d="M323.59 915.975a1.68 1.68 0 01-.563.079l.563-.079z" fill="#fff"/><path d="M323.59 915.975a1.68 1.68 0 01-.563.079" stroke="#3D3D3D" stroke-width="1.497" stroke-miterlimit="10"/><path d="M319.422 800.424l.467 98.918c.091 2.008.077 4.02-.04 6.026l-.245 6.654" fill="#fff"/><path d="M319.422 800.424l.467 98.919a58.215 58.215 0 01-.04 6.025l-.245 6.654" stroke="#fff" stroke-width="1.497" stroke-miterlimit="10"/><path d="M321.106 791.95l.296.032a.465.465 0 01.384.381l.452 2.218c.037.128.056.261.056.395v1.532a1.58 1.58 0 01-.029.283l-.791 3.905a.318.318 0 01-.363.273l-.765-.146a.756.756 0 01-.388-.234.733.733 0 01-.18-.412l-.579-4.065a2.862 2.862 0 01-.027-.403v-1.337c0-.098.014-.195.04-.29l.582-2.073a.23.23 0 01.236-.175l.216.024" fill="#E5E5E5"/><path d="M321.094 792.221l-.034.29a.455.455 0 01-.387.377l-2.259.446a1.559 1.559 0 01-.403.053h-1.56c-.097 0-.194-.01-.289-.028l-3.976-.777a.322.322 0 01-.214-.121.307.307 0 01-.063-.235l.148-.752a.738.738 0 01.24-.381.763.763 0 01.42-.176l4.139-.569c.136-.019.272-.028.41-.028h1.36c.1 0 .199.014.296.039l2.111.574c.052.011.099.04.132.082a.226.226 0 01.045.148l-.023.212" fill="#8C9091"/><path d="M320.724 792.826c.233-.016.393-.425.356-.913-.036-.489-.255-.871-.488-.855-.234.016-.394.425-.357.914.036.488.255.871.489.854z" fill="#000"/><path d="M320.684 792.33c.035-.002.052-.178.037-.393-.014-.214-.053-.386-.088-.384-.035.003-.051.179-.037.393.014.215.054.387.088.384z" stroke="#8C9091" stroke-miterlimit="10"/><path d="M319.066 911.976h.308c.075 0 .147.063.181.166.28.491.688.9 1.183 1.184" stroke="#3D3D3D" stroke-width=".75" stroke-miterlimit="10"/><path d="M330.486 791.073l-.879-.229a.236.236 0 00-.213.047c-.2.222-.306.511-.294.807-.011.504.03.671.34.768" fill="#fff"/><path d="M330.486 791.073l-.879-.229a.236.236 0 00-.213.047c-.2.222-.306.511-.294.807-.011.504.03.671.34.768" stroke="#fff" stroke-width="1.497" stroke-miterlimit="10"/><path d="M329.765 804.492l-.368-.101c-.325-.121-.325-.121-.363-.373l-.779-5.317a2.748 2.748 0 01-.028-.385v-2.083c0-.181.02-.361.057-.538l.46-3.017c.043-.282.197-.489.386-.516l.111-.03a.231.231 0 01.098 0l.642.135" fill="#fff"/><path d="M329.765 804.492l-.368-.101c-.325-.121-.325-.121-.363-.373l-.779-5.317a2.748 2.748 0 01-.028-.385v-2.083c0-.181.02-.361.057-.538l.46-3.017c.043-.282.197-.489.386-.516l.111-.03a.231.231 0 01.098 0l.642.135" stroke="#fff" stroke-width="1.497" stroke-miterlimit="10"/><path d="M330.017 791.969l-.296.031a.465.465 0 00-.384.378l-.46 2.218a1.434 1.434 0 00-.057.395v1.532c0 .095.01.191.028.284l.779 3.907a.306.306 0 00.124.212.315.315 0 00.239.063l.764-.144a.747.747 0 00.39-.232.725.725 0 00.18-.411l.594-4.063c.018-.133.027-.268.028-.403V794.4a1.02 1.02 0 00-.039-.29l-.577-2.075a.221.221 0 00-.084-.131.232.232 0 00-.151-.045l-.216.023" fill="#E5E5E5"/><path d="M326.987 915.248l.245 1.02c.047.202-.029.416-.164.462l-.103.033a1.444 1.444 0 01-.958 0l-.095-.033a.398.398 0 01-.158-.469l.294-1.138" stroke="#3D3D3D" stroke-width="1.497" stroke-miterlimit="10"/><path d="M332.041 912.196l.184.765c.047.202-.03.416-.165.461l-.102.035a1.188 1.188 0 01-.802 0" fill="#fff"/><path d="M332.041 912.196l.184.765c.047.202-.03.416-.165.461l-.102.035a1.188 1.188 0 01-.802 0" stroke="#3D3D3D" stroke-width="1.497" stroke-miterlimit="10"/><path d="M330.965 912.632l.309 1.288c.047.202-.03.415-.165.461l-.103.034a8.707 8.707 0 01-.955.055" fill="#fff"/><path d="M330.965 912.632l.309 1.288c.047.202-.03.415-.165.461l-.103.034a8.707 8.707 0 01-.955.055" stroke="#3D3D3D" stroke-width="1.497" stroke-miterlimit="10"/><path d="M328.701 916.655a1.442 1.442 0 01-.552-.082l-.094-.032c-.136-.047-.212-.27-.159-.469l.168-.651" fill="#fff"/><path d="M328.701 916.655a1.442 1.442 0 01-.552-.082l-.094-.032c-.136-.047-.212-.27-.159-.469l.168-.651" stroke="#3D3D3D" stroke-width="1.497" stroke-miterlimit="10"/><path d="M327.165 915.984c.18.06.37.089.561.084l-.561-.084z" fill="#fff"/><path d="M327.165 915.984c.18.06.37.089.561.084" stroke="#3D3D3D" stroke-width="1.497" stroke-miterlimit="10"/><path d="M330.444 792.227l-.154.417c.021.184.363.209.573.251l2.259.453c.131.036.266.055.402.054h1.561c.097 0 .194-.009.289-.027l3.979-.765a.321.321 0 00.27-.232.3.3 0 00.008-.123l-.145-.751a.738.738 0 00-.238-.383.773.773 0 00-.42-.178l-4.134-.581a2.879 2.879 0 00-.416-.029h-1.361c-.1-.001-.199.013-.295.039l-2.112.567a.22.22 0 00-.18.229l.022.212" fill="#8C9091"/><path d="M331.507 896.45l-.25 3.085a54.2 54.2 0 00-.324 5.864" fill="#fff"/><path d="M331.507 896.45l-.25 3.085a54.2 54.2 0 00-.324 5.864" stroke="#fff" stroke-width=".75" stroke-miterlimit="10"/><path d="M330.905 791.926c.036-.488-.123-.898-.357-.915-.233-.016-.452.366-.489.854-.036.488.123.898.357.915.233.016.452-.366.489-.854z" fill="#000"/><path d="M330.545 791.9c.015-.215-.002-.391-.036-.393-.035-.003-.074.169-.089.384-.014.214.002.39.037.393.034.002.074-.17.088-.384z" stroke="#8C9091" stroke-miterlimit="10"/><path d="M332.631 911.88l-.749.194a.32.32 0 00-.182-.066l.538-.982c-.322.364-.62.748-.892 1.149a10.966 10.966 0 01-2.044 1.899" stroke="#3D3D3D" stroke-width=".75" stroke-miterlimit="10"/><path d="M323.146 914.908l.907.202c.436.085.88.128 1.326.131.445 0 .889-.041 1.326-.125l.762-.157" fill="#fff"/><path d="M323.146 914.908l.907.202c.436.085.88.128 1.326.131.445 0 .889-.041 1.326-.125l.762-.157" stroke="#3D3D3D" stroke-width=".75" stroke-miterlimit="10"/><path d="M322.514 900.646l-2.102 12.904c-.025.15-.038.303-.037.456v3.83c0 .388.224.701.501.706h.151a.473.473 0 00.411-.289l1.377-2.644c.173-.35.439-.648.772-.861a.166.166 0 00.051-.063.16.16 0 00.016-.08l.013-8.757c0-.516-.029-1.031-.088-1.544l-.422-3.629c-.063-.495-.561-.513-.643-.029zm5.68.046l2.069 12.916c.024.15.036.303.036.455v3.831c0 .387-.228.706-.505.7h-.151a.484.484 0 01-.411-.291l-1.37-2.651a2.16 2.16 0 00-.769-.865.172.172 0 01-.069-.145l.014-8.757c0-.516.031-1.03.092-1.542l.431-3.63c.055-.486.555-.505.633-.021z" fill="#8C9091"/><path d="M318.864 897.127l.675 2.985" stroke="#fff" stroke-width=".75" stroke-miterlimit="10"/><path d="M318.453 791.482h14.207" stroke="#8C9091" stroke-miterlimit="10"/><path d="M318.529 912.597c.228-.367.555-.664.945-.86a.152.152 0 00.062-.061.155.155 0 00.021-.084l.011-8.757a10.898 10.898 0 00-.107-1.542l-.52-3.629a.38.38 0 00-.375-.384.392.392 0 00-.404.355l-2.572 12.905c-.03.15-.045.302-.045.455v3.831a.649.649 0 00.159.478.673.673 0 00.456.228h.188a.591.591 0 00.498-.289m15.474-2.654a2.369 2.369 0 00-.945-.86.161.161 0 01-.084-.144l-.01-8.758c0-.516.035-1.032.108-1.543l.513-3.629a.384.384 0 01.377-.384.39.39 0 01.405.356l2.566 12.904c.03.15.045.302.045.455v3.831a.65.65 0 01-.161.477.675.675 0 01-.456.228h-.186a.598.598 0 01-.5-.289" fill="#8C9091"/><path d="M354.879 823.773h129.706" stroke="#fff" stroke-width=".524" stroke-miterlimit="10" stroke-dasharray="2.1 2.1"/><path d="M179.922 582.38c85.368-68.876 200.492-127.548 222.956-54.849 18.167 58.8-76.221 100.744-76.221 233.597m190.75-207.895c0-81.515-22.729-230.499 39.742-286.288m119.91-73.509c119.602-60.086 217.217-8.495 202.565 101.79-14.51 109.196-218.523 208.19-218.523 481.935" stroke="#fff" stroke-width="1.6" stroke-miterlimit="10" stroke-linecap="round"/><path d="M.25 917.89h1015.09" stroke="#fff" stroke-width="1.047" stroke-miterlimit="10"/><path opacity=".87" d="M452.82 990.394h-13.746v9.307h16.133v5.749h-23.293v-34.745h23.245v5.799h-16.085v8.281h13.746v5.609zm26.205 7.899h-12.553l-2.387 7.157h-7.613l12.935-34.745h6.635l13.007 34.745h-7.614l-2.41-7.157zm-10.62-5.799h8.687l-4.368-13.007-4.319 13.007zm36.753.239h-5.704v12.717h-7.16v-34.745h12.912c4.105 0 7.271.914 9.498 2.744 2.228 1.83 3.341 4.415 3.341 7.757 0 2.37-.517 4.351-1.551 5.942-1.018 1.575-2.569 2.832-4.654 3.771l7.518 14.201v.33h-7.685l-6.515-12.717zm-5.704-5.8h5.776c1.797 0 3.19-.453 4.176-1.36.987-.923 1.48-2.188 1.48-3.795 0-1.638-.47-2.927-1.408-3.866-.923-.939-2.347-1.408-4.272-1.408h-5.752v10.429zm49.02-10.429H537.83v28.946h-7.16v-28.946h-10.5v-5.799h28.304v5.799zm32.386 28.946h-7.16v-14.889h-13.961v14.889h-7.16v-34.745h7.16v14.08H573.7v-14.08h7.16v34.745z" fill="#fff"/><path d="M643.336 142.244c57.813-23.936 79.58-32.875 181.187-56.293M179.922 582.38c31.542-142.059 200.047-299.069 333.202-368.826" stroke="#fff" stroke-width="1.5" stroke-miterlimit="10" stroke-linecap="round"/><path d="M193.969 716.293v16.006m-30.235-15.996v16.007" stroke="#fff" stroke-width=".343" stroke-miterlimit="10" stroke-dasharray="0.47 0.47"/><path opacity=".5" d="M296.969 788.068c0 2.241.906 4.391 2.52 5.976a8.687 8.687 0 006.085 2.476h2.149m44.045-8.49a8.376 8.376 0 01-2.521 5.976 8.683 8.683 0 01-6.084 2.476h-2.147" stroke="#fff" stroke-width=".524" stroke-miterlimit="10" stroke-dasharray="0.35 0.35"/><path d="M519.469 680.651v30.326m6.097-30.811v18.545m-12.199-18.545v18.545" stroke="#fff" stroke-width=".383" stroke-miterlimit="10" stroke-dasharray="0.82 0.82"/><g opacity=".4" fill="#fff"><path opacity=".4" d="M532.432 892.955l-5.372-36.858h-15.218l-5.373 36.859c4.226-.338 8.564-.524 12.992-.524 4.428 0 8.751.187 12.971.523z"/><path opacity=".4" d="M514.952 885.816c-.748.127-1.486.285-2.21.479l.771 13.801 1.439-14.28zm-1.124 19.913l.365 6.531h9.853l.364-6.483-10.582-.048zm-18.297-2.891a9.58 9.58 0 011.656-.154 9.842 9.842 0 016.809 2.851 9.493 9.493 0 012.809 6.727h.064l1.353-24.263a25.166 25.166 0 00-7.881 6.152 24.678 24.678 0 00-4.81 8.687zm29.968-16.528a23.297 23.297 0 00-2.27-.496l1.479 14.657.791-14.161zm15.502 16.374a9.56 9.56 0 011.655.154 24.671 24.671 0 00-4.789-8.665 25.196 25.196 0 00-7.847-6.148l1.354 24.235h.009a9.49 9.49 0 012.809-6.726 9.837 9.837 0 016.809-2.85z"/><path opacity=".4" d="M513.827 905.731l10.586.046.295-5.307-1.478-14.656a24.311 24.311 0 00-8.276 0l-1.438 14.28.311 5.637z"/><path opacity=".4" d="M512.943 905.724l.569-5.63-.771-13.802c-1.56.418-3.073.989-4.517 1.703l-1.353 24.263h7.321l-.365-6.53-.884-.004z"/><path opacity=".4" d="M512.945 905.725h.881l-.313-5.634-.568 5.634zm12.554-19.415l-.791 14.16.534 5.311h-.831l-.364 6.483h7.325l-1.355-24.234a24.368 24.368 0 00-4.518-1.72z"/><path opacity=".4" d="M525.245 905.781l-.536-5.31-.295 5.306.831.004zm-29.711-2.943a9.503 9.503 0 00-2.96 1.035 13.517 13.517 0 012 3.409 25.04 25.04 0 01.96-4.444z"/><path opacity=".4" d="M497.19 902.684a9.59 9.59 0 00-1.656.154 25.129 25.129 0 00-.96 4.444 13.53 13.53 0 01.99 4.978h11.244a9.489 9.489 0 00-2.809-6.725 9.842 9.842 0 00-6.809-2.851zm-4.616 1.189a13.21 13.21 0 00-4.623-3.689 13.464 13.464 0 00-5.802-1.33c-2.793.024-5.51.901-7.773 2.511a13.227 13.227 0 00-4.852 6.471 9.6 9.6 0 013.328 1.648 9.399 9.399 0 012.429 2.777h12.295a9.613 9.613 0 011.357-4.85 9.842 9.842 0 013.641-3.538z"/><path opacity=".4" d="M494.572 907.282a13.546 13.546 0 00-2-3.409 9.827 9.827 0 00-3.643 3.536 9.622 9.622 0 00-1.359 4.851h6.877a25.356 25.356 0 01-.076-1.877c.003-1.036.071-2.072.201-3.101z"/><path opacity=".4" d="M494.379 910.383c0 .633.029 1.256.075 1.877h1.11a13.53 13.53 0 00-.99-4.978 25.525 25.525 0 00-.195 3.101zm51.237-6.51a9.485 9.485 0 00-2.96-1.035c.455 1.45.777 2.937.96 4.444a13.594 13.594 0 012-3.409z"/><path opacity=".4" d="M542.651 902.838a9.56 9.56 0 00-1.655-.154 9.844 9.844 0 00-6.809 2.851 9.496 9.496 0 00-2.808 6.726h11.243c.014-1.705.349-3.393.99-4.978a24.946 24.946 0 00-.961-4.445zm26.017 4.998a13.22 13.22 0 00-4.852-6.471 13.615 13.615 0 00-7.773-2.511c-2.012.006-3.996.46-5.802 1.33a13.222 13.222 0 00-4.624 3.689 9.83 9.83 0 013.643 3.537 9.609 9.609 0 011.359 4.851h12.295a9.392 9.392 0 012.428-2.776 9.593 9.593 0 013.326-1.649z"/><path opacity=".4" d="M545.613 903.873a13.573 13.573 0 00-1.999 3.409c.129 1.029.194 2.065.196 3.101 0 .632-.03 1.256-.075 1.877h6.876a9.606 9.606 0 00-1.357-4.85 9.816 9.816 0 00-3.641-3.537z"/><path opacity=".4" d="M543.614 907.282a13.57 13.57 0 00-.989 4.978h1.111c.045-.621.075-1.244.075-1.877a25.328 25.328 0 00-.197-3.101zm27.489.224a9.396 9.396 0 00-2.435.329c.507 1.423.773 2.918.788 4.426h9.839a9.344 9.344 0 00-3.441-3.467 9.573 9.573 0 00-4.751-1.288z"/><path opacity=".4" d="M562.911 912.26h6.545a13.585 13.585 0 00-.788-4.425 9.603 9.603 0 00-3.328 1.649 9.395 9.395 0 00-2.429 2.776zm-95.826-4.754a9.56 9.56 0 00-4.75 1.289 9.324 9.324 0 00-3.44 3.466h9.839c.015-1.508.281-3.003.787-4.426a9.404 9.404 0 00-2.436-.329z"/><path opacity=".4" d="M469.522 907.835a13.585 13.585 0 00-.788 4.425h6.546a9.413 9.413 0 00-2.43-2.776 9.585 9.585 0 00-3.328-1.649z"/></g><g opacity=".4" fill="#fff"><path opacity=".4" d="M191.894 892.955l-5.375-36.858h-15.216l-5.37 36.859c4.225-.338 8.561-.524 12.99-.524s8.751.187 12.971.523z"/><path opacity=".4" d="M174.411 885.816a24.19 24.19 0 00-2.211.479l.771 13.801 1.44-14.28zm-1.126 19.914l.364 6.531h9.853l.363-6.484-10.58-.047zm-18.293-2.892a9.592 9.592 0 011.657-.154 9.84 9.84 0 016.81 2.85 9.484 9.484 0 012.806 6.728h.064l1.356-24.263a25.175 25.175 0 00-7.884 6.151 24.665 24.665 0 00-4.809 8.688zm29.964-16.528a23.386 23.386 0 00-2.268-.496l1.478 14.657.79-14.161zm15.498 16.374a9.583 9.583 0 011.657.154 24.663 24.663 0 00-4.791-8.664 25.196 25.196 0 00-7.847-6.148l1.354 24.235h.009a9.492 9.492 0 012.808-6.726 9.845 9.845 0 016.81-2.851z"/><path opacity=".4" d="M173.283 905.731l10.585.046.297-5.307-1.479-14.656a24.311 24.311 0 00-8.276 0l-1.437 14.28.31 5.637z"/><path opacity=".4" d="M172.402 905.724l.568-5.63-.771-13.802c-1.56.418-3.072.989-4.516 1.703l-1.355 24.263h7.322l-.364-6.53-.884-.004z"/><path opacity=".4" d="M172.402 905.725h.882l-.315-5.634-.567 5.634zm12.554-19.415l-.79 14.16.536 5.311h-.833l-.361 6.483h7.321l-1.354-24.234a24.334 24.334 0 00-4.519-1.72z"/><path opacity=".4" d="M184.702 905.781l-.535-5.31-.296 5.306.831.004zm-29.708-2.943a9.48 9.48 0 00-2.959 1.035 13.546 13.546 0 012 3.409c.183-1.507.504-2.994.959-4.444z"/><path opacity=".4" d="M156.648 902.684a9.592 9.592 0 00-1.657.154 25.038 25.038 0 00-.959 4.444c.64 1.585.976 3.273.99 4.978h11.242a9.48 9.48 0 00-2.806-6.726 9.83 9.83 0 00-6.81-2.85zm-4.615 1.189a13.23 13.23 0 00-4.625-3.69 13.478 13.478 0 00-5.802-1.329c-2.793.024-5.51.901-7.773 2.511a13.227 13.227 0 00-4.852 6.471 9.6 9.6 0 013.328 1.648 9.417 9.417 0 012.43 2.777h12.294a9.609 9.609 0 011.359-4.851 9.831 9.831 0 013.641-3.537z"/><path opacity=".4" d="M154.033 907.282a13.546 13.546 0 00-2-3.409 9.827 9.827 0 00-3.643 3.536 9.622 9.622 0 00-1.359 4.851h6.877a25.354 25.354 0 01-.077-1.877c.004-1.036.071-2.072.202-3.101z"/><path opacity=".4" d="M153.836 910.383c0 .633.03 1.256.077 1.877h1.109a13.59 13.59 0 00-.989-4.978 25.328 25.328 0 00-.197 3.101zm51.235-6.51a9.482 9.482 0 00-2.958-1.035c.454 1.45.775 2.938.959 4.444a13.513 13.513 0 011.999-3.409z"/><path opacity=".4" d="M202.115 902.838a9.603 9.603 0 00-1.658-.154 9.842 9.842 0 00-6.809 2.851 9.493 9.493 0 00-2.809 6.726h11.245a13.57 13.57 0 01.989-4.978 25.046 25.046 0 00-.958-4.445zm26.011 4.998a13.223 13.223 0 00-4.853-6.471 13.607 13.607 0 00-7.772-2.511c-2.011.005-3.996.46-5.802 1.329a13.218 13.218 0 00-4.624 3.69 9.834 9.834 0 013.642 3.537 9.6 9.6 0 011.359 4.851h12.294a9.41 9.41 0 012.429-2.776 9.598 9.598 0 013.327-1.649z"/><path opacity=".4" d="M205.074 903.873a13.546 13.546 0 00-2 3.409c.129 1.029.196 2.065.198 3.101 0 .632-.031 1.256-.077 1.877h6.877a9.607 9.607 0 00-1.358-4.85 9.821 9.821 0 00-3.64-3.537z"/><path opacity=".4" d="M203.071 907.282a13.59 13.59 0 00-.989 4.978h1.11c.046-.621.077-1.244.077-1.877a25.132 25.132 0 00-.198-3.101zm27.49.224a9.41 9.41 0 00-2.436.329c.508 1.423.774 2.918.789 4.426h9.839a9.344 9.344 0 00-3.441-3.467 9.573 9.573 0 00-4.751-1.288z"/><path opacity=".4" d="M222.367 912.26h6.547a13.613 13.613 0 00-.789-4.425 9.603 9.603 0 00-3.328 1.649 9.425 9.425 0 00-2.43 2.776zm-95.823-4.754a9.57 9.57 0 00-4.75 1.289 9.351 9.351 0 00-3.442 3.466h9.839c.015-1.508.281-3.003.788-4.426a9.396 9.396 0 00-2.435-.329z"/><path opacity=".4" d="M128.98 907.835a13.586 13.586 0 00-.789 4.425h6.547a9.413 9.413 0 00-2.43-2.776 9.585 9.585 0 00-3.328-1.649z"/></g><path d="M582.883 197.028l12.668 22.851m13.019-6.255l-12.668-22.852" stroke="#fff" stroke-width="1.5" stroke-miterlimit="10" stroke-dasharray="1.05 1.05"/><path d="M174.315 711.067a8.819 8.819 0 01-2.045-.697c-.122-.083-.357.101-.491.101h-1.436c-.147 0-.263-.184-.263-.412l-4.634-1.356a.323.323 0 01-.17-.319v-9.006c0-.253.031-.506.092-.752l4.194-14.517c.306-1.202.568-2.427.789-3.676l1.09-6.167c.129-1.066.194-2.139.194-3.212v-38.32l-4.554-1.904v-5.115a1.79 1.79 0 01.149-.735l9.495-16.801.718-1.559c.411-.898 1.263-.898 1.675 0l.719 1.559 9.494 16.801c.102.232.152.483.149.735v5.115l-4.553 1.904v38.32a26.535 26.535 0 00.192 3.212l1.092 6.167c.22 1.246.483 2.471.789 3.676l4.193 14.517c.061.246.092.499.092.752v9.006a.32.32 0 01-.169.319l-4.635 1.356c0 .228-.116.412-.262.412h-1.438c-.133 0-.282-.188-.41-.101-.299.202-2.553-.605-3.797-.284" fill="#8C9091"/><path d="M181.503 711.536l-6.63-.082-3.093-1.057-.276-1.325v-84.055s.411-3.571.868-5.417c.847-3.398 4.312-12.184 4.312-12.184l1.21-1.082 1.698 1.411a63.276 63.276 0 015.009 12.549l.496 3.773-.703 80.031-.069 6.226-2.822 1.212z" fill="#fff"/><path d="M180.95 711.332c-.865.118-1.738.177-2.611.176a18.183 18.183 0 01-2.772-.325m3.235-104.684l3.535 8.887 1.893 5.575.219 87.834.151 1.68v-79.514c0-7.158-.297-8.258-2.65-16.552-1.449-5.111-2.544-7.124-3.148-7.91a.602.602 0 00-.522-.297.604.604 0 00-.522.297c-.604.786-1.701 2.799-3.149 7.91-2.352 8.294-2.649 9.394-2.649 16.552v79.514" stroke="#fff" stroke-miterlimit="10"/><path d="M182.18 711.354v-6.123c0-1.381-.076-2.761-.228-4.134l-.28-3.16c-.034-.388-.246-.677-.495-.677-.174 0-.317.224-.317.504v13.563a.205.205 0 00.022.112.209.209 0 00.081.083c.342.112.705.147 1.063.1.085-.014.154-.13.154-.268zm-7.8 0v-6.123c0-1.381.077-2.761.228-4.134l.28-3.16c.034-.388.246-.677.495-.677.176 0 .317.224.317.504v13.563a.198.198 0 01-.102.194 2.398 2.398 0 01-1.064.101c-.085-.014-.154-.13-.154-.268z" fill="#8C9091" stroke="#8C9091" stroke-miterlimit="10"/><path d="M178.469 618.879h-3.797c-.23 0-.48-.365-.353-.716.327-.907.215-.734 1.508-4.176 2.104-5.603 2.539-4.901 2.539-4.901s.711-.725 2.753 4.901c1.276 3.519 1.146 3.225 1.508 4.176.132.349-.123.716-.353.716h-3.805zm-.106 2.222h4.459a.306.306 0 01.156.047c.046.03.083.072.107.121l.08.166a.307.307 0 01-.114.406.33.33 0 01-.15.046h-4.538m-.019 1.848h5.17a.358.358 0 01.308.157l.093.153c.117.192-.048.421-.308.421h-5.263m-.063 1.795h5.169a.357.357 0 01.308.157l.095.155c.116.191-.05.42-.308.42h-5.264m0 1.895h5.169a.357.357 0 01.308.156l.095.155c.116.193-.05.421-.308.421h-5.264m.082-8.519h-4.458a.306.306 0 00-.156.047.288.288 0 00-.106.121l-.081.166a.307.307 0 00.114.405.311.311 0 00.148.047h4.539m-.02 1.847h-5.169a.357.357 0 00-.308.157l-.093.153c-.117.193.048.422.307.422h5.263m-.064 1.795h-5.167a.365.365 0 00-.309.157l-.093.155c-.117.191.048.42.308.42h5.262m-.001 1.895h-5.167a.356.356 0 00-.309.156l-.093.154c-.117.193.048.422.308.422h5.262" fill="#8C9091"/><path d="M185.393 855.72l-2.977 6.281-9.72-2.44.868-3.841-1.349-123.268 13.343-.163-.165 123.431z" fill="#fff"/><path d="M172.691 746.087l-.183 97.098" stroke="#fff" stroke-width="1.497" stroke-miterlimit="10"/><path d="M172.681 746.25l.015-17.165c0-.191.102-.345.224-.344l11.744.033c.124 0 .224.155.224.345l-.152 17.34" fill="#fff"/><path d="M172.681 746.25l.015-17.165c0-.191.102-.345.224-.344l11.744.033c.124 0 .224.155.224.345l-.152 17.34" stroke="#fff" stroke-width="1.497" stroke-miterlimit="10"/><path d="M173.832 736.884l.879-.223a.227.227 0 01.113-.002.227.227 0 01.1.051c.199.222.304.51.292.806.009.497-.032.669-.341.764" fill="#fff"/><path d="M173.832 736.884l.879-.223a.227.227 0 01.113-.002.227.227 0 01.1.051c.199.222.304.51.292.806.009.497-.032.669-.341.764" stroke="#fff" stroke-width="1.497" stroke-miterlimit="10"/><path d="M174.52 750.288l.369-.101c.325-.12.325-.12.363-.371l.79-5.303c.019-.128.029-.256.029-.385v-2.081c0-.18-.019-.361-.057-.537l-.45-3.016c-.042-.28-.197-.489-.384-.516l-.113-.031a.222.222 0 00-.096 0l-.643.131" fill="#fff"/><path d="M174.52 750.288l.369-.101c.325-.12.325-.12.363-.371l.79-5.303c.019-.128.029-.256.029-.385v-2.081c0-.18-.019-.361-.057-.537l-.45-3.016c-.042-.28-.197-.489-.384-.516l-.113-.031a.222.222 0 00-.096 0l-.643.131" stroke="#fff" stroke-width="1.497" stroke-miterlimit="10"/><path d="M177.022 860.883l-.248 1.017a.4.4 0 00.164.462l.102.034c.31.109.649.109.958 0l.094-.031c.135-.047.212-.268.161-.468l-.292-1.138m-6.073-2.915c-.048.202-.058 1.14.075 1.187l.103.034c.315.109.454-1.067.779-1.145" stroke="#3D3D3D" stroke-width="1.497" stroke-miterlimit="10"/><path d="M173.476 858.76l-.42.745a.4.4 0 00.162.46l.102.035c.121.042.247.069.375.078" fill="#fff"/><path d="M173.476 858.76l-.42.745a.4.4 0 00.162.46l.102.035c.121.042.247.069.375.078" stroke="#3D3D3D" stroke-width="1.497" stroke-miterlimit="10"/><path d="M175.129 862.173c.188.009.375-.017.552-.079l.093-.031c.135-.047.213-.268.162-.468l-.167-.651" fill="#fff"/><path d="M175.129 862.173c.188.009.375-.017.552-.079l.093-.031c.135-.047.213-.268.162-.468l-.167-.651" stroke="#3D3D3D" stroke-width="1.497" stroke-miterlimit="10"/><path d="M178.266 861.77c.116.045.239.072.364.08.125-.008.247-.034.363-.079" fill="#fff"/><path d="M178.266 861.77c.116.045.239.072.364.08.125-.008.247-.034.363-.079" stroke="#3D3D3D" stroke-width="1.497" stroke-miterlimit="10"/><path d="M176.842 861.617a1.644 1.644 0 01-.561.08l.561-.08z" fill="#fff"/><path d="M176.842 861.617a1.644 1.644 0 01-.561.08" stroke="#3D3D3D" stroke-width="1.497" stroke-miterlimit="10"/><path d="M172.681 746.25l.467 98.762a58.043 58.043 0 01-.039 6.016l-.243 6.643" fill="#fff"/><path d="M172.681 746.25l.467 98.762a58.043 58.043 0 01-.039 6.016l-.243 6.643" stroke="#fff" stroke-width="1.497" stroke-miterlimit="10"/><path d="M174.33 738.031l.296.032a.466.466 0 01.384.38l.45 2.218c.037.129.057.262.057.395v1.529c0 .095-.01.19-.029.283l-.79 3.899a.339.339 0 01-.041.118.335.335 0 01-.083.093.334.334 0 01-.239.061l-.764-.146a.754.754 0 01-.388-.234.728.728 0 01-.178-.411l-.578-4.059a2.853 2.853 0 01-.029-.403v-1.334c0-.098.014-.196.041-.29l.58-2.07a.223.223 0 01.235-.174l.216.024" fill="#8C9091"/><path d="M173.98 738.664c.233-.016.393-.425.356-.912-.036-.488-.254-.87-.487-.854-.233.016-.393.425-.356.912.036.488.254.871.487.854z" fill="#000"/><path d="M173.938 738.168c.035-.002.052-.178.038-.392-.015-.214-.054-.385-.089-.383-.035.002-.051.178-.037.392.014.214.054.386.088.383z" stroke="#8C9091" stroke-miterlimit="10"/><path d="M172.328 857.622h.308c.075 0 .146.062.178.165.281.491.689.899 1.184 1.182" stroke="#3D3D3D" stroke-width=".75" stroke-miterlimit="10"/><path d="M183.732 736.913l-.879-.229a.24.24 0 00-.214.048 1.14 1.14 0 00-.294.806c-.011.499.03.671.339.768" fill="#fff"/><path d="M183.732 736.913l-.879-.229a.24.24 0 00-.214.048 1.14 1.14 0 00-.294.806c-.011.499.03.671.339.768" stroke="#fff" stroke-width="1.497" stroke-miterlimit="10"/><path d="M183.008 750.312l-.369-.101c-.323-.122-.322-.121-.36-.372l-.777-5.309a2.46 2.46 0 01-.028-.383v-2.081c0-.181.019-.361.056-.538l.46-3.012c.042-.281.197-.488.385-.515l.113-.03a.191.191 0 01.095 0l.643.134" fill="#fff"/><path d="M183.008 750.312l-.369-.101c-.323-.122-.322-.121-.36-.372l-.777-5.309a2.46 2.46 0 01-.028-.383v-2.081c0-.181.019-.361.056-.538l.46-3.012c.042-.281.197-.488.385-.515l.113-.03a.191.191 0 01.095 0l.643.134" stroke="#fff" stroke-width="1.497" stroke-miterlimit="10"/><path d="M180.229 860.892l.245 1.02c.048.201-.029.414-.163.459l-.104.034a1.441 1.441 0 01-.957 0l-.093-.032c-.136-.047-.212-.27-.16-.469l.293-1.136" stroke="#3D3D3D" stroke-width="1.497" stroke-miterlimit="10"/><path d="M185.282 857.845l.183.764a.4.4 0 01-.162.46l-.103.034c-.258.093-.54.093-.798 0" fill="#fff"/><path d="M185.282 857.845l.183.764a.4.4 0 01-.162.46l-.103.034c-.258.093-.54.093-.798 0" stroke="#3D3D3D" stroke-width="1.497" stroke-miterlimit="10"/><path d="M184.208 858.28l.308 1.287c.048.201-.029.414-.164.459l-.102.035a8.657 8.657 0 01-.953.055" fill="#fff"/><path d="M184.208 858.28l.308 1.287c.048.201-.029.414-.164.459l-.102.035a8.657 8.657 0 01-.953.055" stroke="#3D3D3D" stroke-width="1.497" stroke-miterlimit="10"/><path d="M181.946 862.297a1.458 1.458 0 01-.552-.081l-.093-.032c-.135-.048-.212-.271-.16-.469l.168-.651" fill="#fff"/><path d="M181.946 862.297a1.458 1.458 0 01-.552-.081l-.093-.032c-.135-.048-.212-.271-.16-.469l.168-.651" stroke="#3D3D3D" stroke-width="1.497" stroke-miterlimit="10"/><path d="M180.414 861.628c.181.059.37.087.56.082l-.56-.082z" fill="#fff"/><path d="M180.414 861.628c.181.059.37.087.56.082" stroke="#3D3D3D" stroke-width="1.497" stroke-miterlimit="10"/><path d="M183.228 738.049l-.296.032a.453.453 0 00-.385.378l-.459 2.218c-.037.128-.056.26-.056.394v1.53c-.001.095.008.19.027.283l.778 3.902a.316.316 0 00.039.118c.021.036.05.067.083.093a.332.332 0 00.238.062l.764-.142a.739.739 0 00.57-.643l.591-4.056c.02-.133.03-.268.03-.403v-1.335c0-.098-.013-.195-.039-.289l-.575-2.073a.225.225 0 00-.085-.13.235.235 0 00-.151-.046l-.215.024" fill="#8C9091"/><path d="M184.747 842.125l-.248 3.08a53.534 53.534 0 00-.327 5.855" fill="#fff"/><path d="M184.747 842.125l-.248 3.08a53.534 53.534 0 00-.327 5.855" stroke="#fff" stroke-width=".75" stroke-miterlimit="10"/><path d="M184.066 737.837c.037-.488-.122-.897-.355-.913-.233-.017-.451.365-.488.852-.036.488.123.897.356.914.232.017.451-.365.487-.853z" fill="#000"/><path d="M183.707 737.812c.014-.214-.002-.389-.037-.392-.034-.002-.074.169-.089.383-.014.214.002.39.037.392.035.003.074-.169.089-.383z" stroke="#8C9091" stroke-miterlimit="10"/><path d="M185.872 857.529l-.749.195a.292.292 0 00-.182-.066l.539-.98c-.321.363-.619.746-.891 1.147a10.97 10.97 0 01-2.042 1.896" stroke="#3D3D3D" stroke-width=".75" stroke-miterlimit="10"/><path d="M176.402 860.552l.907.202a7.004 7.004 0 002.649.007l.757-.157" fill="#fff"/><path d="M176.402 860.552l.907.202a7.004 7.004 0 002.649.007l.757-.157" stroke="#3D3D3D" stroke-width=".75" stroke-miterlimit="10"/><path d="M175.77 846.312l-2.1 12.885c-.025.15-.037.302-.037.455v3.825c0 .387.223.706.5.706h.152a.484.484 0 00.411-.29l1.376-2.639c.171-.35.438-.647.77-.859a.177.177 0 00.067-.144l.012-8.744a12.986 12.986 0 00-.088-1.54l-.42-3.622c-.064-.493-.564-.515-.643-.033zm5.67.048l2.067 12.895c.024.15.034.303.035.455v3.826c0 .386-.226.698-.504.697h-.151a.483.483 0 01-.411-.291l-1.368-2.647a2.152 2.152 0 00-.767-.864.16.16 0 01-.067-.144l.011-8.742c.001-.515.032-1.029.092-1.541l.43-3.62c.056-.489.555-.508.633-.024z" fill="#8C9091"/><path d="M172.125 842.801l.674 2.98" stroke="#fff" stroke-width=".75" stroke-miterlimit="10"/><path d="M171.715 737.323H185.9" stroke="#8C9091" stroke-miterlimit="10"/><path d="M171.792 858.24c.228-.366.554-.663.942-.859a.158.158 0 00.085-.144l.01-8.743a10.74 10.74 0 00-.109-1.541l-.513-3.622a.379.379 0 00-.108-.266.389.389 0 00-.267-.117.391.391 0 00-.404.355l-2.566 12.883c-.03.15-.045.302-.045.455v3.825a.65.65 0 00.161.478.675.675 0 00.456.228h.186a.592.592 0 00.499-.288m15.439-2.643a2.374 2.374 0 00-.943-.859.154.154 0 01-.083-.144l-.012-8.743c-.002-.515.035-1.03.108-1.54l.513-3.624a.384.384 0 01.375-.373.392.392 0 01.272.095.382.382 0 01.131.25l2.566 12.884c.03.15.045.302.045.455v3.826a.652.652 0 01-.161.475.674.674 0 01-.455.225h-.186a.59.59 0 01-.498-.288m344.761-661.349a8.325 8.325 0 01-.393-2.09c.014-.146-.269-.253-.334-.367l-.707-1.224c-.072-.123.032-.314.234-.427l-1.088-4.628c-.023-.1.061-.224.198-.302l7.973-4.447a3.18 3.18 0 01.711-.293l14.924-3.591a53.041 53.041 0 003.643-1.141l6-2.118a27.38 27.38 0 002.937-1.42l33.926-18.928-.568-4.83 4.529-2.527c.223-.127.469-.206.725-.234l19.565-.191 1.732-.16c.999-.092 1.419.635.829 1.43l-1.027 1.38-10.186 16.407c-.154.202-.35.369-.575.491l-4.529 2.528-3.934-2.951-33.926 18.935a27.59 27.59 0 00-2.748 1.751l-4.922 3.978a54.592 54.592 0 00-2.862 2.489l-10.784 10.753a3.25 3.25 0 01-.616.451l-7.973 4.446a.329.329 0 01-.365.015l-3.491-3.289c-.205.113-.422.101-.493-.02l-.707-1.224c-.065-.114.027-.337-.108-.403-.329-.155-.725-2.48-1.624-3.387" fill="#8C9091"/><path d="M535.129 205.902l-3.202-5.704-.591-3.161 1.037-.89 74.415-41.516s3.361-1.417 5.224-1.936c3.428-.955 12.915-2.337 12.915-2.337l1.557.504-.411 2.144a64.273 64.273 0 01-8.634 10.476l-3.095 2.287-71.195 38.93-5.543 3.016-2.477-1.813z" fill="#fff"/><path d="M535.034 205.326a18.65 18.65 0 01-1.446-2.142 17.334 17.334 0 01-1.079-2.521m94.27-48.947l-6.119 7.41-4.003 4.367-77.646 43.572-1.413.959 70.39-39.275c6.337-3.535 7.164-4.335 13.343-10.437 3.809-3.763 5.048-5.694 5.446-6.596a.586.586 0 00-.213-.811.62.62 0 00-.3-.082c-.994-.126-3.316-.069-8.557 1.217-8.505 2.088-9.625 2.378-15.961 5.914l-70.391 39.274" stroke="#fff" stroke-miterlimit="10"/><path d="M535.626 206.39l5.42-3.025a39.241 39.241 0 003.548-2.235l2.659-1.801c.326-.221.477-.544.354-.756-.087-.15-.355-.161-.599-.025l-12.009 6.698a.203.203 0 00-.12.183c.067.348.215.676.433.959.057.07.19.07.314.002zm-3.851-6.66l5.422-3.025a39.388 39.388 0 013.771-1.848l2.937-1.321c.36-.162.718-.124.841.088.086.151-.04.383-.284.519l-12.009 6.698a.207.207 0 01-.222.01 2.306 2.306 0 01-.617-.856c-.034-.081.035-.197.161-.265z" fill="#8C9091" stroke="#8C9091" stroke-miterlimit="10"/><path d="M615.654 157.546l-1.877-3.246c-.113-.202.087-.59.46-.655.968-.17.758-.179 4.442-.775 6-.969 5.593-.252 5.593-.252s.993.249-2.977 4.771c-2.485 2.828-2.286 2.57-2.952 3.351a.54.54 0 01-.392.205.545.545 0 01-.417-.153l-1.88-3.246zm-2.02 1.006l2.203 3.807a.276.276 0 01.033.154.278.278 0 01-.054.148l-.102.15a.316.316 0 01-.266.142.32.32 0 01-.265-.142l-2.242-3.876m-1.649.9l2.554 4.415a.34.34 0 01.011.338l-.09.155a.304.304 0 01-.12.102.313.313 0 01-.157.026.291.291 0 01-.245-.179l-2.6-4.495m-1.619.833l2.554 4.415a.338.338 0 01.011.338l-.09.156a.29.29 0 01-.121.101.301.301 0 01-.402-.154l-2.6-4.494m-1.674.935l2.553 4.414a.348.348 0 01.011.337l-.09.156a.292.292 0 01-.277.129.308.308 0 01-.149-.056.302.302 0 01-.097-.124l-2.6-4.495" fill="#8C9091"/><path d="M613.634 158.552l-2.201-3.807a.285.285 0 00-.119-.109.294.294 0 00-.16-.032l-.185.012a.322.322 0 00-.261.151.307.307 0 00-.012.297l2.244 3.876m-1.647.895l-2.55-4.414a.356.356 0 00-.29-.183h-.183a.296.296 0 00-.28.322.286.286 0 00.057.146l2.599 4.495m-1.62.829l-2.551-4.415a.346.346 0 00-.122-.127.356.356 0 00-.168-.055h-.182a.302.302 0 00-.255.168.286.286 0 00.031.301l2.599 4.494m-1.672.93l-2.554-4.414a.348.348 0 00-.288-.183h-.183a.31.31 0 00-.151.049.306.306 0 00-.104.119.283.283 0 00-.026.154.3.3 0 00.058.146l2.599 4.495M567.972 251.3a7.707 7.707 0 01-.389-1.987c.015-.14-.264-.241-.328-.349l-.7-1.164c-.07-.118.034-.302.233-.403l-1.073-4.4c-.023-.092.059-.213.194-.287l7.866-4.229a3.2 3.2 0 01.702-.278l14.727-3.415a53.946 53.946 0 003.592-1.085l5.918-2.016c.992-.395 1.96-.846 2.9-1.351l33.471-17.998-.558-4.593 4.467-2.403c.222-.121.467-.197.719-.222l19.302-.181 1.709-.152c.986-.088 1.4.604.816 1.359l-1.012 1.311-10.049 15.602a1.776 1.776 0 01-.569.467l-4.467 2.402-3.883-2.804-33.471 17.997a27.426 27.426 0 00-2.711 1.666l-4.856 3.781a51.323 51.323 0 00-2.825 2.369L587.06 259.16c-.187.166-.395.31-.617.428l-7.865 4.229a.336.336 0 01-.361.013l-3.443-3.126c-.197.107-.415.101-.487-.019l-.698-1.163c-.066-.109.024-.321-.103-.38-.324-.147-.718-2.358-1.603-3.22" fill="#8C9091"/><path d="M571.065 257.357l-3.161-5.423-.584-3.006 1.026-.847 73.417-39.477s3.316-1.345 5.154-1.838c3.382-.908 12.742-2.223 12.742-2.223l1.54.476-.402 2.039a61.72 61.72 0 01-8.519 9.961l-3.056 2.175-70.244 37.017-5.471 2.867-2.442-1.721z" fill="#fff"/><path d="M570.968 256.81a17.919 17.919 0 01-1.425-2.037 16.175 16.175 0 01-1.066-2.401m93.013-46.538l-6.038 7.045-3.948 4.154-76.613 41.434-1.392.908 69.451-37.344c6.252-3.362 7.067-4.119 13.165-9.925 3.758-3.577 4.982-5.414 5.374-6.272a.56.56 0 000-.574.571.571 0 00-.513-.274c-.98-.12-3.271-.066-8.443 1.157-8.391 1.985-9.497 2.261-15.749 5.623l-69.452 37.344" stroke="#fff" stroke-miterlimit="10"/><path d="M571.552 257.821l5.349-2.876a39.143 39.143 0 003.5-2.125l2.623-1.714c.322-.21.472-.516.351-.719-.085-.142-.35-.152-.59-.023l-11.846 6.369c-.082.045-.133.117-.122.174.07.33.216.641.427.907.048.076.187.077.308.007zm-3.8-6.332l5.349-2.877a39.587 39.587 0 013.721-1.756l2.898-1.257c.355-.154.71-.118.833.084.084.143-.042.363-.282.492l-11.845 6.371a.22.22 0 01-.109.035.197.197 0 01-.111-.027 2.21 2.21 0 01-.608-.813c-.034-.078.033-.187.154-.252z" fill="#8C9091" stroke="#8C9091" stroke-miterlimit="10"/><path d="M526.396 854.43l-2.976 6.28-9.721-2.439.868-3.841-1.349-123.269 13.344-.162-.166 123.431z" fill="#fff"/><path d="M513.691 744.795l-.183 97.097" stroke="#fff" stroke-width="1.497" stroke-miterlimit="10"/><path d="M513.684 744.956l.013-17.166c0-.191.102-.344.224-.344l11.744.034c.124 0 .223.155.223.345l-.15 17.334" fill="#fff"/><path d="M513.684 744.956l.013-17.166c0-.191.102-.344.224-.344l11.744.034c.124 0 .223.155.223.345l-.15 17.334" stroke="#fff" stroke-width="1.497" stroke-miterlimit="10"/><path d="M514.833 735.591l.878-.224a.228.228 0 01.113-.002.225.225 0 01.1.05c.2.224.305.515.292.812.01.498-.033.669-.342.765" fill="#fff"/><path d="M514.833 735.591l.878-.224a.228.228 0 01.113-.002.225.225 0 01.1.05c.2.224.305.515.292.812.01.498-.033.669-.342.765" stroke="#fff" stroke-width="1.497" stroke-miterlimit="10"/><path d="M515.521 748.993l.37-.101c.322-.12.322-.12.361-.371l.792-5.302c.018-.128.027-.257.027-.386v-2.08c0-.18-.018-.36-.054-.537l-.454-3.015c-.042-.282-.195-.489-.382-.518l-.113-.03a.195.195 0 00-.096 0l-.643.131" fill="#fff"/><path d="M515.521 748.993l.37-.101c.322-.12.322-.12.361-.371l.792-5.302c.018-.128.027-.257.027-.386v-2.08c0-.18-.018-.36-.054-.537l-.454-3.015c-.042-.282-.195-.489-.382-.518l-.113-.03a.195.195 0 00-.096 0l-.643.131" stroke="#fff" stroke-width="1.497" stroke-miterlimit="10"/><path d="M518.02 859.589l-.245 1.017a.4.4 0 00.16.462l.104.034c.309.108.646.108.956 0l.093-.032c.137-.046.213-.268.162-.468l-.291-1.138m-6.07-2.914c-.049.202-.06 1.14.075 1.187l.103.034c.316.11.455-1.068.78-1.144" stroke="#3D3D3D" stroke-width="1.497" stroke-miterlimit="10"/><path d="M514.475 857.465l-.418.746c-.048.201.026.414.16.46l.103.034c.121.043.248.07.376.08" fill="#fff"/><path d="M514.475 857.465l-.418.746c-.048.201.026.414.16.46l.103.034c.121.043.248.07.376.08" stroke="#3D3D3D" stroke-width="1.497" stroke-miterlimit="10"/><path d="M516.133 860.881c.187.01.374-.017.551-.077l.092-.033c.137-.046.214-.268.163-.467l-.167-.652" fill="#fff"/><path d="M516.133 860.881c.187.01.374-.017.551-.077l.092-.033c.137-.046.214-.268.163-.467l-.167-.652" stroke="#3D3D3D" stroke-width="1.497" stroke-miterlimit="10"/><path d="M519.266 860.471c.116.045.239.072.364.08.125-.007.249-.033.365-.078" fill="#fff"/><path d="M519.266 860.471c.116.045.239.072.364.08.125-.007.249-.033.365-.078" stroke="#3D3D3D" stroke-width="1.497" stroke-miterlimit="10"/><path d="M517.846 860.324a1.693 1.693 0 01-.561.079l.561-.079z" fill="#fff"/><path d="M517.846 860.324a1.693 1.693 0 01-.561.079" stroke="#3D3D3D" stroke-width="1.497" stroke-miterlimit="10"/><path d="M513.684 744.957l.466 98.761a58.043 58.043 0 01-.039 6.016l-.244 6.643" fill="#fff"/><path d="M513.684 744.957l.466 98.761a58.043 58.043 0 01-.039 6.016l-.244 6.643" stroke="#fff" stroke-width="1.497" stroke-miterlimit="10"/><path d="M515.331 736.736l.296.032a.467.467 0 01.254.13.443.443 0 01.128.251l.454 2.217c.036.129.054.262.054.396v1.529c-.001.095-.01.19-.028.283l-.791 3.899a.325.325 0 01-.04.117.325.325 0 01-.322.155l-.764-.146a.755.755 0 01-.388-.235.734.734 0 01-.18-.411l-.576-4.058a2.733 2.733 0 01-.03-.403v-1.334c.001-.098.014-.196.041-.29l.583-2.07a.219.219 0 01.084-.13.229.229 0 01.149-.045l.216.024" fill="#8C9091"/><path d="M514.979 737.37c.233-.016.392-.425.357-.913-.036-.487-.254-.869-.487-.853-.233.016-.393.425-.357.913.036.488.254.87.487.853z" fill="#000"/><path d="M514.939 736.874c.035-.003.051-.178.037-.392-.014-.214-.054-.386-.088-.383-.035.002-.052.178-.038.392.015.214.054.385.089.383z" stroke="#8C9091" stroke-miterlimit="10"/><path d="M513.328 856.325h.308c.075 0 .144.064.178.167.281.49.69.897 1.185 1.18" stroke="#3D3D3D" stroke-width=".75" stroke-miterlimit="10"/><path d="M524.729 735.619l-.877-.227a.228.228 0 00-.213.046c-.2.221-.306.51-.294.806-.01.498.031.671.339.768" fill="#fff"/><path d="M524.729 735.619l-.877-.227a.228.228 0 00-.213.046c-.2.221-.306.51-.294.806-.01.498.031.671.339.768" stroke="#fff" stroke-width="1.497" stroke-miterlimit="10"/><path d="M524.009 749.017l-.368-.1c-.324-.121-.325-.122-.362-.374l-.777-5.308a2.59 2.59 0 01-.026-.384v-2.08a2.494 2.494 0 01.055-.538l.46-3.012c.043-.28.197-.488.385-.514l.111-.03a.199.199 0 01.097 0l.642.134" fill="#fff"/><path d="M524.009 749.017l-.368-.1c-.324-.121-.325-.122-.362-.374l-.777-5.308a2.59 2.59 0 01-.026-.384v-2.08a2.494 2.494 0 01.055-.538l.46-3.012c.043-.28.197-.488.385-.514l.111-.03a.199.199 0 01.097 0l.642.134" stroke="#fff" stroke-width="1.497" stroke-miterlimit="10"/><path d="M521.238 859.598l.242 1.019c.048.202-.029.415-.163.46l-.102.034c-.31.109-.648.109-.957 0l-.093-.032c-.137-.048-.212-.269-.161-.468l.295-1.137" stroke="#3D3D3D" stroke-width="1.497" stroke-miterlimit="10"/><path d="M526.284 856.551l.183.763a.4.4 0 01-.164.461l-.102.033a1.17 1.17 0 01-.8 0" fill="#fff"/><path d="M526.284 856.551l.183.763a.4.4 0 01-.164.461l-.102.033a1.17 1.17 0 01-.8 0" stroke="#3D3D3D" stroke-width="1.497" stroke-miterlimit="10"/><path d="M525.208 856.985l.309 1.287c.047.201-.03.414-.165.459l-.103.035a9.176 9.176 0 01-.952.056" fill="#fff"/><path d="M525.208 856.985l.309 1.287c.047.201-.03.414-.165.459l-.103.035a9.176 9.176 0 01-.952.056" stroke="#3D3D3D" stroke-width="1.497" stroke-miterlimit="10"/><path d="M522.95 861.004a1.453 1.453 0 01-.551-.082l-.092-.033c-.138-.047-.213-.269-.162-.467l.169-.651" fill="#fff"/><path d="M522.95 861.004a1.453 1.453 0 01-.551-.082l-.092-.033c-.138-.047-.213-.269-.162-.467l.169-.651" stroke="#3D3D3D" stroke-width="1.497" stroke-miterlimit="10"/><path d="M521.415 860.334c.18.059.37.087.56.082l-.56-.082z" fill="#fff"/><path d="M521.415 860.334c.18.059.37.087.56.082" stroke="#3D3D3D" stroke-width="1.497" stroke-miterlimit="10"/><path d="M524.227 736.759l-.295.031a.467.467 0 00-.255.128.45.45 0 00-.13.25l-.46 2.218a1.515 1.515 0 00-.056.396v1.529c0 .095.008.189.026.282l.777 3.903a.331.331 0 00.123.211.334.334 0 00.24.063l.764-.143a.748.748 0 00.569-.643l.591-4.056c.019-.134.029-.269.03-.404v-1.334a1.098 1.098 0 00-.041-.29l-.577-2.072a.217.217 0 00-.083-.13.229.229 0 00-.149-.045l-.216.022" fill="#8C9091"/><path d="M525.749 840.83l-.249 3.081a54.256 54.256 0 00-.324 5.854" fill="#fff"/><path d="M525.749 840.83l-.249 3.081a54.256 54.256 0 00-.324 5.854" stroke="#fff" stroke-width=".75" stroke-miterlimit="10"/><path d="M525.066 736.544c.037-.487-.122-.896-.355-.913-.233-.017-.451.365-.488.853-.036.487.123.896.356.913.232.017.451-.365.487-.853z" fill="#000"/><path d="M524.707 736.519c.014-.214-.002-.389-.037-.391-.034-.003-.074.168-.089.382-.014.214.002.39.037.392.035.003.075-.169.089-.383z" stroke="#8C9091" stroke-miterlimit="10"/><path d="M526.871 856.236l-.748.193a.312.312 0 00-.181-.065l.537-.981c-.321.363-.619.747-.891 1.147a10.905 10.905 0 01-2.041 1.897" stroke="#3D3D3D" stroke-width=".75" stroke-miterlimit="10"/><path d="M517.406 859.258l.905.201a7.004 7.004 0 002.649.007l.76-.157" fill="#fff"/><path d="M517.406 859.258l.905.201a7.004 7.004 0 002.649.007l.76-.157" stroke="#3D3D3D" stroke-width=".75" stroke-miterlimit="10"/><path d="M516.77 845.018l-2.1 12.885a2.66 2.66 0 00-.037.455v3.825c0 .387.224.7.501.701h.15a.491.491 0 00.248-.087.466.466 0 00.163-.202l1.376-2.64a2.14 2.14 0 01.77-.859.158.158 0 00.053-.064.182.182 0 00.016-.08l.012-8.743c0-.515-.03-1.03-.089-1.541l-.421-3.622c-.064-.489-.563-.511-.642-.028zm5.665.048l2.064 12.895c.025.151.037.302.036.455v3.826c0 .386-.227.699-.503.698h-.152a.493.493 0 01-.248-.089.468.468 0 01-.162-.203l-1.368-2.646a2.145 2.145 0 00-.768-.863.174.174 0 01-.068-.145l.014-8.743c0-.515.03-1.029.091-1.541l.431-3.62c.06-.488.559-.507.633-.024z" fill="#8C9091"/><path d="M513.125 841.507l.674 2.98" stroke="#fff" stroke-width=".75" stroke-miterlimit="10"/><path d="M512.715 736.028H526.9" stroke="#8C9091" stroke-miterlimit="10"/><path d="M512.794 856.952c.228-.366.554-.664.943-.859a.165.165 0 00.062-.061.155.155 0 00.021-.084l.011-8.742a10.728 10.728 0 00-.107-1.541l-.513-3.623a.384.384 0 00-.376-.373.394.394 0 00-.271.094.378.378 0 00-.131.25l-2.566 12.885c-.03.15-.045.302-.045.454v3.832a.651.651 0 00.161.474.677.677 0 00.454.226h.186a.601.601 0 00.499-.288m15.438-2.654a2.372 2.372 0 00-.942-.859.146.146 0 01-.063-.06.155.155 0 01-.022-.084l-.01-8.742c0-.516.035-1.03.108-1.541l.513-3.623c0-.1.04-.194.11-.266a.392.392 0 01.267-.116.389.389 0 01.403.355l2.566 12.883c.029.149.044.302.045.455v3.825a.654.654 0 01-.16.478.68.68 0 01-.457.228h-.185a.595.595 0 01-.5-.289m-13.275-183.259a8.81 8.81 0 01-2.044-.697c-.122-.083-.356.101-.489.101h-1.438c-.145 0-.262-.184-.262-.412l-4.635-1.356a.316.316 0 01-.17-.32v-9.005c0-.253.031-.506.093-.752l4.193-14.517a50.17 50.17 0 00.789-3.676l1.092-6.168c.129-1.066.193-2.138.192-3.211v-38.321l-4.554-1.903v-5.109a1.791 1.791 0 01.15-.735l9.494-16.801.719-1.559c.41-.898 1.262-.898 1.674 0l.718 1.559 9.495 16.801c.101.232.152.483.149.735v5.116l-4.554 1.902v38.321c0 1.073.064 2.146.193 3.212l1.091 6.167c.221 1.246.483 2.471.789 3.676l4.193 14.518c.063.246.095.498.094.751v9.005a.32.32 0 01-.169.32l-4.636 1.356c0 .228-.117.412-.262.412h-1.437c-.134 0-.285-.188-.411-.101-.3.202-2.554-.605-3.798-.284" fill="#8C9091"/><path d="M522.147 676.795l-6.63-.081-3.091-1.056-.278-1.326v-84.056s.411-3.571.868-5.417c.847-3.398 4.312-12.184 4.312-12.184l1.213-1.082 1.696 1.411a63.333 63.333 0 015.008 12.549l.497 3.773-.702 80.032-.07 6.225-2.823 1.212z" fill="#fff"/><path d="M521.59 676.594c-.865.117-1.738.176-2.611.175a17.934 17.934 0 01-2.772-.325m3.243-104.685l3.534 8.887 1.892 5.575.22 87.834.15 1.681v-79.512c0-7.158-.296-8.258-2.648-16.552-1.449-5.111-2.546-7.123-3.148-7.91a.608.608 0 00-1.046 0c-.603.787-1.699 2.799-3.148 7.91-2.353 8.294-2.65 9.394-2.65 16.552v79.515" stroke="#fff" stroke-miterlimit="10"/><path d="M522.825 676.613v-6.123c0-1.381-.077-2.761-.229-4.133l-.279-3.161c-.034-.388-.246-.676-.495-.676-.175 0-.317.223-.317.504v13.562a.198.198 0 00.102.194c.342.113.706.148 1.064.101.086-.013.154-.129.154-.268zm-7.799 0v-6.123c0-1.381.077-2.761.229-4.133l.28-3.161c.033-.388.245-.676.495-.676.175 0 .317.223.317.504v13.562a.205.205 0 01-.022.112.209.209 0 01-.081.083 2.403 2.403 0 01-1.062.1c-.086-.013-.156-.129-.156-.268z" fill="#8C9091" stroke="#8C9091" stroke-miterlimit="10"/><path d="M657.132 914.402a8.77 8.77 0 01-2.045-.696c-.122-.084-.356.101-.489.101h-1.437c-.145 0-.263-.185-.263-.413l-4.634-1.355a.322.322 0 01-.168-.319v-9.005c-.001-.254.03-.506.091-.753l4.193-14.518c.306-1.202.569-2.427.79-3.675l1.091-6.167c.129-1.066.193-2.138.193-3.212v-38.319l-4.555-1.903v-5.115a1.796 1.796 0 01.15-.734l9.495-16.803.718-1.559c.411-.898 1.263-.898 1.674 0l.719 1.559 9.494 16.803c.102.231.154.481.151.734v5.115l-4.555 1.903v38.321a26.524 26.524 0 00.193 3.212l1.091 6.167a50.1 50.1 0 00.791 3.676l4.192 14.517c.062.246.093.499.093.753v9.005a.315.315 0 01-.036.185.315.315 0 01-.134.134l-4.635 1.355c0 .228-.116.413-.263.413h-1.432c-.133 0-.285-.189-.411-.101-.299.201-2.551-.605-3.796-.285" fill="#8C9091"/><path d="M664.319 914.871l-6.631-.081-3.091-1.057-.277-1.326v-84.055s.412-3.57.869-5.416c.848-3.399 4.311-12.184 4.311-12.184l1.213-1.083 1.697 1.412a63.429 63.429 0 015.009 12.547l.494 3.775-.701 80.03-.07 6.226-2.823 1.212z" fill="#fff"/><path d="M663.762 914.669c-.865.117-1.738.175-2.611.175a18.181 18.181 0 01-2.772-.324m3.237-104.684l3.538 8.886 1.889 5.576.221 87.833.151 1.68v-79.513c0-7.158-.296-8.259-2.648-16.553-1.451-5.111-2.548-7.123-3.151-7.909a.604.604 0 00-1.043 0c-.603.786-1.701 2.798-3.15 7.909-2.353 8.294-2.65 9.394-2.65 16.553v79.513" stroke="#fff" stroke-miterlimit="10"/><path d="M664.997 914.689v-6.123c0-1.381-.076-2.761-.227-4.134l-.281-3.16c-.034-.387-.245-.675-.492-.675-.177 0-.32.222-.32.497v13.563a.202.202 0 00.103.195c.341.113.704.148 1.061.101.088-.009.156-.124.156-.264zm-7.802 0v-6.123c0-1.381.075-2.761.227-4.134l.282-3.16c.033-.387.243-.675.493-.675.175 0 .318.222.318.497v13.563a.2.2 0 01-.103.195 2.39 2.39 0 01-1.062.101c-.087-.009-.155-.124-.155-.264z" fill="#8C9091" stroke="#8C9091" stroke-miterlimit="10"/><path d="M724.021 306.744c0 3.981-.824 7.027-2.472 9.136-1.648 2.109-4.061 3.164-7.238 3.164-3.137 0-5.537-1.035-7.198-3.105-1.661-2.069-2.511-5.036-2.551-8.898v-5.3c0-4.021.831-7.073 2.492-9.156 1.674-2.083 4.08-3.124 7.218-3.124 3.137 0 5.537 1.035 7.198 3.104 1.661 2.057 2.511 5.017 2.551 8.879v5.3zm-5.715-5.814c0-2.386-.33-4.12-.989-5.201-.646-1.094-1.661-1.641-3.045-1.641-1.345 0-2.34.521-2.986 1.562-.633 1.029-.969 2.643-1.009 4.845v7c0 2.347.317 4.094.949 5.241.646 1.134 1.675 1.7 3.085 1.7 1.398 0 2.406-.547 3.026-1.641.619-1.094.942-2.768.969-5.023v-6.842zm15.404.791h3.046c1.45 0 2.524-.362 3.223-1.087.699-.726 1.048-1.688 1.048-2.888 0-1.16-.349-2.063-1.048-2.709-.685-.646-1.635-.969-2.848-.969-1.094 0-2.01.303-2.748.91-.739.593-1.108 1.371-1.108 2.333h-5.715c0-1.503.403-2.847 1.207-4.034.817-1.199 1.951-2.135 3.401-2.808 1.463-.672 3.072-1.008 4.825-1.008 3.045 0 5.432.731 7.159 2.195 1.727 1.45 2.59 3.454 2.59 6.011 0 1.319-.402 2.531-1.206 3.639-.804 1.107-1.859 1.958-3.164 2.551 1.621.58 2.828 1.45 3.619 2.61.804 1.16 1.206 2.531 1.206 4.113 0 2.558-.936 4.608-2.808 6.15-1.859 1.543-4.324 2.314-7.396 2.314-2.874 0-5.227-.758-7.06-2.274-1.819-1.516-2.729-3.52-2.729-6.012h5.715c0 1.081.403 1.965 1.207 2.65.817.686 1.819 1.028 3.005 1.028 1.358 0 2.42-.356 3.184-1.067.778-.726 1.167-1.681 1.167-2.868 0-2.874-1.582-4.311-4.746-4.311h-3.026v-4.469zM134.923 575.593c0 3.982-.824 7.027-2.472 9.136-1.648 2.11-4.06 3.164-7.237 3.164-3.138 0-5.537-1.035-7.198-3.104-1.662-2.07-2.512-5.036-2.551-8.899v-5.3c0-4.021.83-7.073 2.491-9.156 1.674-2.083 4.08-3.124 7.218-3.124s5.537 1.035 7.198 3.105c1.661 2.056 2.512 5.016 2.551 8.879v5.299zm-5.715-5.814c0-2.386-.329-4.119-.989-5.2-.646-1.095-1.661-1.642-3.045-1.642-1.345 0-2.34.521-2.986 1.562-.633 1.029-.969 2.644-1.008 4.845v7.001c0 2.346.316 4.093.949 5.24.646 1.134 1.674 1.701 3.085 1.701 1.397 0 2.406-.547 3.025-1.642.62-1.094.943-2.768.969-5.023v-6.842zm23.473 17.719h-5.715v-22.03l-6.822 2.116v-4.647l11.924-4.271h.613v28.832z" fill="#fff"/><path d="M178.556 596.969c10.73 0 19.428-8.543 19.428-19.082 0-10.539-8.698-19.082-19.428-19.082-10.729 0-19.428 8.543-19.428 19.082 0 10.539 8.699 19.082 19.428 19.082z" fill="#fff" stroke="#000" stroke-width="6" stroke-miterlimit="10"/><path d="M504.946 147.816c0 3.981-.824 7.027-2.472 9.136-1.648 2.109-4.061 3.164-7.238 3.164-3.138 0-5.537-1.035-7.198-3.105-1.661-2.07-2.511-5.036-2.551-8.899v-5.299c0-4.021.831-7.073 2.492-9.156 1.674-2.083 4.08-3.124 7.217-3.124 3.138 0 5.537 1.034 7.199 3.104 1.661 2.057 2.511 5.016 2.551 8.879v5.3zm-5.715-5.814c0-2.386-.33-4.12-.989-5.201-.646-1.094-1.661-1.641-3.046-1.641-1.344 0-2.34.521-2.986 1.562-.632 1.028-.968 2.643-1.008 4.845v7c0 2.347.316 4.094.949 5.241.646 1.133 1.674 1.7 3.085 1.7 1.397 0 2.406-.547 3.026-1.641.619-1.094.942-2.769.969-5.023v-6.842zm29.326 17.718h-19.736v-3.915l9.314-9.927c1.279-1.398 2.222-2.617 2.828-3.658.62-1.042.93-2.031.93-2.967 0-1.278-.323-2.28-.969-3.005-.646-.739-1.569-1.108-2.769-1.108-1.292 0-2.314.448-3.065 1.345-.738.883-1.107 2.05-1.107 3.5h-5.735c0-1.753.415-3.355 1.246-4.805.843-1.45 2.03-2.584 3.559-3.402 1.529-.83 3.263-1.245 5.201-1.245 2.966 0 5.267.711 6.901 2.135 1.648 1.424 2.472 3.435 2.472 6.032 0 1.423-.369 2.874-1.107 4.35-.738 1.477-2.004 3.197-3.797 5.161l-6.545 6.902h12.379v4.607z" fill="#fff"/><path d="M556.302 167.127c10.73 0 19.428-8.543 19.428-19.082 0-10.539-8.698-19.082-19.428-19.082-10.729 0-19.427 8.543-19.427 19.082 0 10.539 8.698 19.082 19.427 19.082zm114.251 160.975c10.73 0 19.429-8.543 19.429-19.082 0-10.539-8.699-19.082-19.429-19.082-10.729 0-19.428 8.543-19.428 19.082 0 10.539 8.699 19.082 19.428 19.082z" fill="#fff" stroke="#000" stroke-width="6" stroke-miterlimit="10"/><path d="M846.243 26.085c0 3.982-.824 7.027-2.472 9.136-1.648 2.11-4.06 3.165-7.238 3.165-3.137 0-5.537-1.035-7.198-3.105-1.661-2.07-2.511-5.036-2.551-8.899v-5.3c0-4.02.831-7.072 2.492-9.155 1.674-2.083 4.08-3.125 7.218-3.125 3.137 0 5.537 1.035 7.198 3.105 1.661 2.056 2.511 5.016 2.551 8.879v5.3zm-5.715-5.813c0-2.386-.33-4.12-.989-5.201-.646-1.094-1.661-1.641-3.045-1.641-1.345 0-2.34.52-2.986 1.562-.633 1.028-.969 2.643-1.009 4.845v7c0 2.347.317 4.093.95 5.24.645 1.134 1.674 1.7 3.084 1.7 1.398 0 2.406-.546 3.026-1.64.62-1.095.943-2.769.969-5.023v-6.842zm26.498 6.881h3.263v4.608h-3.263v6.229h-5.715v-6.23h-11.805l-.257-3.598 12.003-18.964h5.774v17.955zm-12.082 0h6.367V16.99l-.375.653-5.992 9.511z" fill="#fff"/><path d="M897.853 47.463c10.73 0 19.428-8.544 19.428-19.082 0-10.54-8.698-19.083-19.428-19.083s-19.428 8.544-19.428 19.083c0 10.538 8.698 19.082 19.428 19.082z" fill="#fff" stroke="#000" stroke-width="6" stroke-miterlimit="10"/></svg>